<mxfile host="app.diagrams.net" modified="2024-03-13T16:27:16.245Z" agent="Mozilla/5.0 (Windows NT 10.0; Win64; x64) AppleWebKit/537.36 (KHTML, like Gecko) Chrome/120.0.0.0 YaBrowser/24.1.0.0 Safari/537.36" version="24.0.5" etag="jN-x_XfG8gvOFmToXmv3" type="github">
  <diagram name="Страница — 1" id="21jAhnZWm8zcNEmivTo1">
    <mxGraphModel>
      <root>
        <mxCell id="0" />
        <mxCell id="1" parent="0" />
      </root>
    </mxGraphModel>
  </diagram>
</mxfile>
